<svg id="Layer_1" data-name="Layer 1" xmlns="http://www.w3.org/2000/svg" viewBox="0 0 176.2 176.2"><defs><style>.cls-1{fill:#262c40;}</style></defs><title>Untitled-1 copy 2</title><path class="cls-1" d="M67.06,48.84s11.78-2.93,22.36-2.93,22.7,2.93,22.7,2.93,14.86-10.4,24.76-9.09c0,0,5.55,9.8,1.11,24,0,0,9.29,8.08,9.29,25.66,0,0,.31,19.7-9.8,29.8S119.7,130.48,106,132.6c0,0,5.86,4.65,5.86,14.35v35.36H67.06V157.66s-22.53,5.25-29.9-9.3c0,0-4.25-11.11-11.32-15.35s.91-5,.91-5,7.58-1.11,13.84,8.69,11.92,10.21,17,10.51a19,19,0,0,0,9.7-2.53s1.31-8.38,5.86-12.12c0,0-27.38-1.31-36.38-20.91s-4.64-40.11,4.65-48c0,0-4.95-11.75.81-24.06C42.21,39.64,50.39,37.93,67.06,48.84Z"/></svg>