<svg id="Layer_1" data-name="Layer 1" xmlns="http://www.w3.org/2000/svg" viewBox="0 0 176.2 176.2"><defs><style>.cls-1{fill:#262c40;}</style></defs><title>Icons</title><path class="cls-1" d="M84.42,104.47,29.47,47.74a10.92,10.92,0,0,1,4.77-1.09H142a11.09,11.09,0,0,1,5.82,1.65L93.55,104.39a6.51,6.51,0,0,1-4.74,2.27A6.87,6.87,0,0,1,84.42,104.47Z"/><path class="cls-1" d="M26.78,49.53,64.26,88.24,25.89,125.77a11.06,11.06,0,0,1-2.83-7.39V57.83A11.12,11.12,0,0,1,26.78,49.53Z"/><path class="cls-1" d="M95.82,106.62l15.57-16.1,37.47,36.63a11.08,11.08,0,0,1-6.89,2.4H34.24a11.1,11.1,0,0,1-5.92-1.71L66.47,90.52,82,106.6a10.15,10.15,0,0,0,6.62,3.24H89A9.69,9.69,0,0,0,95.82,106.62Z"/><path class="cls-1" d="M153.14,57.83v60.55a11.07,11.07,0,0,1-2.08,6.47L113.6,88.24l36.64-37.9A11.14,11.14,0,0,1,153.14,57.83Z"/></svg>