<svg id="Layer_1" data-name="Layer 1" xmlns="http://www.w3.org/2000/svg" viewBox="0 0 176.2 176.2"><defs><style>.cls-1{fill:#262c40;}</style></defs><title>Untitled-1 copy 2</title><path class="cls-1" d="M154.73,70.8c-6.07-6.06-16.09-6-22.78.1-9.64-6.9-22.31-11.56-36.41-12.79l7.08-23.32,21.74,5.09a11.68,11.68,0,1,0,1.78-7.46L100.87,26.5a3.85,3.85,0,0,0-4.55,2.62l-8.7,28.67c-16.89.07-32.21,5-43.44,13-6.69-6-16.66-6.07-22.71,0-6.27,6.28-5.95,16.77.73,23.45a18.45,18.45,0,0,0,3.65,2.83,34,34,0,0,0-.66,6.71c0,25.41,28.12,46,62.83,46s62.83-20.6,62.83-46a33.85,33.85,0,0,0-.65-6.62,17.84,17.84,0,0,0,3.8-2.92C160.68,87.57,161,77.08,154.73,70.8ZM56.46,95.88a9.71,9.71,0,1,1,9.71,9.7A9.7,9.7,0,0,1,56.46,95.88Zm55.15,29.59c-6.44,5.42-13.58,7.73-23.86,7.73a38.93,38.93,0,0,1-23.07-7.53,3.83,3.83,0,1,1,4.41-6.27,31.59,31.59,0,0,0,18.66,6.13c8.54,0,13.85-1.66,18.92-5.93a3.84,3.84,0,1,1,4.94,5.87Zm-1.52-19.89a9.7,9.7,0,1,1,9.7-9.7A9.7,9.7,0,0,1,110.09,105.58Z"/></svg>