<svg id="Layer_1" data-name="Layer 1" xmlns="http://www.w3.org/2000/svg" viewBox="0 0 176.2 176.2"><defs><style>.cls-1{fill:#262c40;}</style></defs><title>Untitled-1 copy 2</title><path class="cls-1" d="M139.85,67.4c.05,1.11.07,2.23.07,3.35,0,34.2-26,73.64-73.64,73.64A73.3,73.3,0,0,1,26.6,132.77a54.81,54.81,0,0,0,6.17.35,52,52,0,0,0,32.15-11.07,25.94,25.94,0,0,1-24.18-18,25.21,25.21,0,0,0,4.87.46,25.92,25.92,0,0,0,6.82-.9A25.91,25.91,0,0,1,31.67,78.25v-.33A25.84,25.84,0,0,0,43.4,81.16a25.92,25.92,0,0,1-8-34.56,73.46,73.46,0,0,0,53.36,27,25.45,25.45,0,0,1-.67-5.89A25.89,25.89,0,0,1,132.84,50a51.92,51.92,0,0,0,16.44-6.28,26,26,0,0,1-11.39,14.32A51.82,51.82,0,0,0,152.76,54,52.55,52.55,0,0,1,139.85,67.4Z"/></svg>