<svg id="Layer_1" data-name="Layer 1" xmlns="http://www.w3.org/2000/svg" viewBox="0 0 176.2 176.2"><defs><style>.cls-1{fill:#262c40;}</style></defs><title>Untitled-1 copy 2</title><path class="cls-1" d="M125.63,25.4H50.57A25.24,25.24,0,0,0,25.4,50.56v75.07A25.25,25.25,0,0,0,50.57,150.8h75.06a25.25,25.25,0,0,0,25.17-25.17V50.56A25.24,25.24,0,0,0,125.63,25.4ZM63.22,132.27H44.69V72.44H63.22ZM54,64.26A10.82,10.82,0,1,1,64.77,53.45,10.81,10.81,0,0,1,54,64.26Zm79.09,35.19V132.2H114.4s.07-26.78,0-30.24c0-.69,0-1.38-.08-2.07-.07-1.24-.18-2.48-.3-3.71a14,14,0,0,0-.74-3.12,9.53,9.53,0,0,0-1.77-3.23c-1.82-2-4.78-2.57-6.85-2.57s-6.49.32-8.88,4.17-2.37,10.88-2.37,10.88V132.2H74.94V72.45H92.69v7.79c0,.56.4.37.4.37a16.76,16.76,0,0,1,2.51-3.43,17.62,17.62,0,0,1,7.9-5.06l.75-.22a26.62,26.62,0,0,1,5.4-.91,27.31,27.31,0,0,1,4.52.1,23.83,23.83,0,0,1,3.24.55q.51.12,1,.27c.78.23,1.59.42,2.36.69a17,17,0,0,1,2.59,1.22,16.78,16.78,0,0,1,3.06,2.32,18.13,18.13,0,0,1,3,3.74C133.4,86.65,133.05,99.45,133.05,99.45Z"/></svg>